<svg xmlns="http://www.w3.org/2000/svg" viewBox="0 0 64 64">
  <rect width="64" height="64" rx="15" fill="#12183F"/>
  <g transform="translate(7 7) scale(.1953125)">
    <defs><mask id="folds"><rect width="256" height="256" fill="#fff"/><path fill="none" stroke="#000" stroke-width="7" stroke-linecap="round" d="M48 176C76 180 99 188 118 200M208 176C180 180 157 188 138 200"/></mask></defs>
    <g mask="url(#folds)"><path fill="#fff" fill-rule="evenodd" d="M128 30C96 30 65 59 52 100L34 179Q31 191 44 194C80 198 105 209 119 219Q128 225 137 219C151 209 176 198 212 194Q225 191 222 179L204 100C192 59 160 30 128 30ZM128 51C105 51 81 77 68 105L63 120Q62 125 68 127C91 135 110 147 123 159Q128 164 133 159C146 147 165 135 188 127Q194 125 193 120L188 105C175 77 151 51 128 51Z"/><path fill="#fff" d="M54 136C80 141 104 154 116 167Q120 171 120 177V192Q120 198 114 195C95 184 74 178 49 175Q45 175 46 170L50 141Q51 135 54 136ZM202 136C176 141 152 154 140 167Q136 171 136 177V192Q136 198 142 195C161 184 182 178 207 175Q211 175 210 170L206 141Q205 135 202 136Z"/></g>
    <path fill="#6150EA" d="M128 35C123 35 120 39 120 44C120 50 124 54 129 54C157 55 179 79 185 115Q187 122 180 126C157 138 137 151 125 165Q119 172 119 181V196C119 202 123 206 128 206C133 206 137 202 137 196V183Q137 176 144 169C159 154 177 145 194 137Q204 133 203 120C195 71 164 35 128 35Z"/>
  </g>
</svg>
